<svg width="926" height="301" viewBox="0 0 926 301" fill="none" xmlns="http://www.w3.org/2000/svg">
<path d="M79 18V271H926" stroke="#6F6F6F"/>
<path d="M4.27148 28H3.18164V20.7754L0.996094 21.5781V20.5938L4.10156 19.4277H4.27148V28ZM12.7969 24.3613C12.7969 25.6309 12.5801 26.5742 12.1465 27.1914C11.7129 27.8086 11.0352 28.1172 10.1133 28.1172C9.20312 28.1172 8.5293 27.8164 8.0918 27.2148C7.6543 26.6094 7.42773 25.707 7.41211 24.5078V23.0605C7.41211 21.8066 7.62891 20.875 8.0625 20.2656C8.49609 19.6562 9.17578 19.3516 10.1016 19.3516C11.0195 19.3516 11.6953 19.6465 12.1289 20.2363C12.5625 20.8223 12.7852 21.7285 12.7969 22.9551V24.3613ZM11.7129 22.8789C11.7129 21.9609 11.584 21.293 11.3262 20.875C11.0684 20.4531 10.6602 20.2422 10.1016 20.2422C9.54688 20.2422 9.14258 20.4512 8.88867 20.8691C8.63477 21.2871 8.50391 21.9297 8.49609 22.7969V24.5312C8.49609 25.4531 8.62891 26.1348 8.89453 26.5762C9.16406 27.0137 9.57031 27.2324 10.1133 27.2324C10.6484 27.2324 11.0449 27.0254 11.3027 26.6113C11.5645 26.1973 11.7012 25.5449 11.7129 24.6543V22.8789ZM19.5352 24.3613C19.5352 25.6309 19.3184 26.5742 18.8848 27.1914C18.4512 27.8086 17.7734 28.1172 16.8516 28.1172C15.9414 28.1172 15.2676 27.8164 14.8301 27.2148C14.3926 26.6094 14.166 25.707 14.1504 24.5078V23.0605C14.1504 21.8066 14.3672 20.875 14.8008 20.2656C15.2344 19.6562 15.9141 19.3516 16.8398 19.3516C17.7578 19.3516 18.4336 19.6465 18.8672 20.2363C19.3008 20.8223 19.5234 21.7285 19.5352 22.9551V24.3613ZM18.4512 22.8789C18.4512 21.9609 18.3223 21.293 18.0645 20.875C17.8066 20.4531 17.3984 20.2422 16.8398 20.2422C16.2852 20.2422 15.8809 20.4512 15.627 20.8691C15.373 21.2871 15.2422 21.9297 15.2344 22.7969V24.5312C15.2344 25.4531 15.3672 26.1348 15.6328 26.5762C15.9023 27.0137 16.3086 27.2324 16.8516 27.2324C17.3867 27.2324 17.7832 27.0254 18.041 26.6113C18.3027 26.1973 18.4395 25.5449 18.4512 24.6543V22.8789ZM26.2734 24.3613C26.2734 25.6309 26.0566 26.5742 25.623 27.1914C25.1895 27.8086 24.5117 28.1172 23.5898 28.1172C22.6797 28.1172 22.0059 27.8164 21.5684 27.2148C21.1309 26.6094 20.9043 25.707 20.8887 24.5078V23.0605C20.8887 21.8066 21.1055 20.875 21.5391 20.2656C21.9727 19.6562 22.6523 19.3516 23.5781 19.3516C24.4961 19.3516 25.1719 19.6465 25.6055 20.2363C26.0391 20.8223 26.2617 21.7285 26.2734 22.9551V24.3613ZM25.1895 22.8789C25.1895 21.9609 25.0605 21.293 24.8027 20.875C24.5449 20.4531 24.1367 20.2422 23.5781 20.2422C23.0234 20.2422 22.6191 20.4512 22.3652 20.8691C22.1113 21.2871 21.9805 21.9297 21.9727 22.7969V24.5312C21.9727 25.4531 22.1055 26.1348 22.3711 26.5762C22.6406 27.0137 23.0469 27.2324 23.5898 27.2324C24.125 27.2324 24.5215 27.0254 24.7793 26.6113C25.041 26.1973 25.1777 25.5449 25.1895 24.6543V22.8789ZM6.2168 82.0781L2.68359 90H1.54688L5.06836 82.3594H0.451172V81.4688H6.2168V82.0781ZM7.94531 85.7227L8.37891 81.4688H12.75V82.4707H9.29883L9.04102 84.7969C9.45898 84.5508 9.93359 84.4277 10.4648 84.4277C11.2422 84.4277 11.8594 84.6855 12.3164 85.2012C12.7734 85.7129 13.002 86.4062 13.002 87.2812C13.002 88.1602 12.7637 88.8535 12.2871 89.3613C11.8145 89.8652 11.1523 90.1172 10.3008 90.1172C9.54688 90.1172 8.93164 89.9082 8.45508 89.4902C7.97852 89.0723 7.70703 88.4941 7.64062 87.7559H8.66602C8.73242 88.2441 8.90625 88.6133 9.1875 88.8633C9.46875 89.1094 9.83984 89.2324 10.3008 89.2324C10.8047 89.2324 11.1992 89.0605 11.4844 88.7168C11.7734 88.373 11.918 87.8984 11.918 87.293C11.918 86.7227 11.7617 86.2656 11.4492 85.9219C11.1406 85.5742 10.7285 85.4004 10.2129 85.4004C9.74023 85.4004 9.36914 85.5039 9.09961 85.7109L8.8125 85.9453L7.94531 85.7227ZM19.5352 86.3613C19.5352 87.6309 19.3184 88.5742 18.8848 89.1914C18.4512 89.8086 17.7734 90.1172 16.8516 90.1172C15.9414 90.1172 15.2676 89.8164 14.8301 89.2148C14.3926 88.6094 14.166 87.707 14.1504 86.5078V85.0605C14.1504 83.8066 14.3672 82.875 14.8008 82.2656C15.2344 81.6562 15.9141 81.3516 16.8398 81.3516C17.7578 81.3516 18.4336 81.6465 18.8672 82.2363C19.3008 82.8223 19.5234 83.7285 19.5352 84.9551V86.3613ZM18.4512 84.8789C18.4512 83.9609 18.3223 83.293 18.0645 82.875C17.8066 82.4531 17.3984 82.2422 16.8398 82.2422C16.2852 82.2422 15.8809 82.4512 15.627 82.8691C15.373 83.2871 15.2422 83.9297 15.2344 84.7969V86.5312C15.2344 87.4531 15.3672 88.1348 15.6328 88.5762C15.9023 89.0137 16.3086 89.2324 16.8516 89.2324C17.3867 89.2324 17.7832 89.0254 18.041 88.6113C18.3027 88.1973 18.4395 87.5449 18.4512 86.6543V84.8789ZM1.20703 147.723L1.64062 143.469H6.01172V144.471H2.56055L2.30273 146.797C2.7207 146.551 3.19531 146.428 3.72656 146.428C4.50391 146.428 5.12109 146.686 5.57812 147.201C6.03516 147.713 6.26367 148.406 6.26367 149.281C6.26367 150.16 6.02539 150.854 5.54883 151.361C5.07617 151.865 4.41406 152.117 3.5625 152.117C2.80859 152.117 2.19336 151.908 1.7168 151.49C1.24023 151.072 0.96875 150.494 0.902344 149.756H1.92773C1.99414 150.244 2.16797 150.613 2.44922 150.863C2.73047 151.109 3.10156 151.232 3.5625 151.232C4.06641 151.232 4.46094 151.061 4.74609 150.717C5.03516 150.373 5.17969 149.898 5.17969 149.293C5.17969 148.723 5.02344 148.266 4.71094 147.922C4.40234 147.574 3.99023 147.4 3.47461 147.4C3.00195 147.4 2.63086 147.504 2.36133 147.711L2.07422 147.945L1.20703 147.723ZM12.7969 148.361C12.7969 149.631 12.5801 150.574 12.1465 151.191C11.7129 151.809 11.0352 152.117 10.1133 152.117C9.20312 152.117 8.5293 151.816 8.0918 151.215C7.6543 150.609 7.42773 149.707 7.41211 148.508V147.061C7.41211 145.807 7.62891 144.875 8.0625 144.266C8.49609 143.656 9.17578 143.352 10.1016 143.352C11.0195 143.352 11.6953 143.646 12.1289 144.236C12.5625 144.822 12.7852 145.729 12.7969 146.955V148.361ZM11.7129 146.879C11.7129 145.961 11.584 145.293 11.3262 144.875C11.0684 144.453 10.6602 144.242 10.1016 144.242C9.54688 144.242 9.14258 144.451 8.88867 144.869C8.63477 145.287 8.50391 145.93 8.49609 146.797V148.531C8.49609 149.453 8.62891 150.135 8.89453 150.576C9.16406 151.014 9.57031 151.232 10.1133 151.232C10.6484 151.232 11.0449 151.025 11.3027 150.611C11.5645 150.197 11.7012 149.545 11.7129 148.654V146.879ZM19.5352 148.361C19.5352 149.631 19.3184 150.574 18.8848 151.191C18.4512 151.809 17.7734 152.117 16.8516 152.117C15.9414 152.117 15.2676 151.816 14.8301 151.215C14.3926 150.609 14.166 149.707 14.1504 148.508V147.061C14.1504 145.807 14.3672 144.875 14.8008 144.266C15.2344 143.656 15.9141 143.352 16.8398 143.352C17.7578 143.352 18.4336 143.646 18.8672 144.236C19.3008 144.822 19.5234 145.729 19.5352 146.955V148.361ZM18.4512 146.879C18.4512 145.961 18.3223 145.293 18.0645 144.875C17.8066 144.453 17.3984 144.242 16.8398 144.242C16.2852 144.242 15.8809 144.451 15.627 144.869C15.373 145.287 15.2422 145.93 15.2344 146.797V148.531C15.2344 149.453 15.3672 150.135 15.6328 150.576C15.9023 151.014 16.3086 151.232 16.8516 151.232C17.3867 151.232 17.7832 151.025 18.041 150.611C18.3027 150.197 18.4395 149.545 18.4512 148.654V146.879ZM6.29883 214H0.708984V213.221L3.66211 209.939C4.09961 209.443 4.40039 209.041 4.56445 208.732C4.73242 208.42 4.81641 208.098 4.81641 207.766C4.81641 207.32 4.68164 206.955 4.41211 206.67C4.14258 206.385 3.7832 206.242 3.33398 206.242C2.79492 206.242 2.375 206.396 2.07422 206.705C1.77734 207.01 1.62891 207.436 1.62891 207.982H0.544922C0.544922 207.197 0.796875 206.562 1.30078 206.078C1.80859 205.594 2.48633 205.352 3.33398 205.352C4.12695 205.352 4.75391 205.561 5.21484 205.979C5.67578 206.393 5.90625 206.945 5.90625 207.637C5.90625 208.477 5.37109 209.477 4.30078 210.637L2.01562 213.115H6.29883V214ZM7.94531 209.723L8.37891 205.469H12.75V206.471H9.29883L9.04102 208.797C9.45898 208.551 9.93359 208.428 10.4648 208.428C11.2422 208.428 11.8594 208.686 12.3164 209.201C12.7734 209.713 13.002 210.406 13.002 211.281C13.002 212.16 12.7637 212.854 12.2871 213.361C11.8145 213.865 11.1523 214.117 10.3008 214.117C9.54688 214.117 8.93164 213.908 8.45508 213.49C7.97852 213.072 7.70703 212.494 7.64062 211.756H8.66602C8.73242 212.244 8.90625 212.613 9.1875 212.863C9.46875 213.109 9.83984 213.232 10.3008 213.232C10.8047 213.232 11.1992 213.061 11.4844 212.717C11.7734 212.373 11.918 211.898 11.918 211.293C11.918 210.723 11.7617 210.266 11.4492 209.922C11.1406 209.574 10.7285 209.4 10.2129 209.4C9.74023 209.4 9.36914 209.504 9.09961 209.711L8.8125 209.945L7.94531 209.723ZM19.5352 210.361C19.5352 211.631 19.3184 212.574 18.8848 213.191C18.4512 213.809 17.7734 214.117 16.8516 214.117C15.9414 214.117 15.2676 213.816 14.8301 213.215C14.3926 212.609 14.166 211.707 14.1504 210.508V209.061C14.1504 207.807 14.3672 206.875 14.8008 206.266C15.2344 205.656 15.9141 205.352 16.8398 205.352C17.7578 205.352 18.4336 205.646 18.8672 206.236C19.3008 206.822 19.5234 207.729 19.5352 208.955V210.361ZM18.4512 208.879C18.4512 207.961 18.3223 207.293 18.0645 206.875C17.8066 206.453 17.3984 206.242 16.8398 206.242C16.2852 206.242 15.8809 206.451 15.627 206.869C15.373 207.287 15.2422 207.93 15.2344 208.797V210.531C15.2344 211.453 15.3672 212.135 15.6328 212.576C15.9023 213.014 16.3086 213.232 16.8516 213.232C17.3867 213.232 17.7832 213.025 18.041 212.611C18.3027 212.197 18.4395 211.545 18.4512 210.654V208.879ZM6.05859 272.361C6.05859 273.631 5.8418 274.574 5.4082 275.191C4.97461 275.809 4.29688 276.117 3.375 276.117C2.46484 276.117 1.79102 275.816 1.35352 275.215C0.916016 274.609 0.689453 273.707 0.673828 272.508V271.061C0.673828 269.807 0.890625 268.875 1.32422 268.266C1.75781 267.656 2.4375 267.352 3.36328 267.352C4.28125 267.352 4.95703 267.646 5.39062 268.236C5.82422 268.822 6.04688 269.729 6.05859 270.955V272.361ZM4.97461 270.879C4.97461 269.961 4.8457 269.293 4.58789 268.875C4.33008 268.453 3.92188 268.242 3.36328 268.242C2.80859 268.242 2.4043 268.451 2.15039 268.869C1.89648 269.287 1.76562 269.93 1.75781 270.797V272.531C1.75781 273.453 1.89062 274.135 2.15625 274.576C2.42578 275.014 2.83203 275.232 3.375 275.232C3.91016 275.232 4.30664 275.025 4.56445 274.611C4.82617 274.197 4.96289 273.545 4.97461 272.654V270.879Z" fill="black"/>
<line x1="74" y1="92.5" x2="83" y2="92.5" stroke="#6F6F6F"/>
<line x1="74" y1="33.5" x2="83" y2="33.5" stroke="#6F6F6F"/>
<line x1="74" y1="210.5" x2="83" y2="210.5" stroke="#6F6F6F"/>
<line x1="150.5" y1="266" x2="150.5" y2="275" stroke="#6F6F6F"/>
<line x1="222.5" y1="266" x2="222.5" y2="275" stroke="#6F6F6F"/>
<line x1="294.5" y1="266" x2="294.5" y2="275" stroke="#6F6F6F"/>
<line x1="366.5" y1="266" x2="366.5" y2="275" stroke="#6F6F6F"/>
<line x1="438.5" y1="266" x2="438.5" y2="275" stroke="#6F6F6F"/>
<line x1="582.5" y1="266" x2="582.5" y2="275" stroke="#6F6F6F"/>
<line x1="510.5" y1="266" x2="510.5" y2="275" stroke="#6F6F6F"/>
<line x1="654.5" y1="266" x2="654.5" y2="275" stroke="#6F6F6F"/>
<line x1="726.5" y1="266" x2="726.5" y2="275" stroke="#6F6F6F"/>
<line x1="798.5" y1="266" x2="798.5" y2="275" stroke="#6F6F6F"/>
<line x1="870.5" y1="266" x2="870.5" y2="275" stroke="#6F6F6F"/>
<line x1="74" y1="151.5" x2="83" y2="151.5" stroke="#6F6F6F"/>
<line x1="74" y1="270.5" x2="83" y2="270.5" stroke="#6F6F6F"/>
<line x1="78.5" y1="267" x2="78.5" y2="275" stroke="#6F6F6F"/>
<path d="M85.0586 293.361C85.0586 294.631 84.8418 295.574 84.4082 296.191C83.9746 296.809 83.2969 297.117 82.375 297.117C81.4648 297.117 80.791 296.816 80.3535 296.215C79.916 295.609 79.6895 294.707 79.6738 293.508V292.061C79.6738 290.807 79.8906 289.875 80.3242 289.266C80.7578 288.656 81.4375 288.352 82.3633 288.352C83.2812 288.352 83.957 288.646 84.3906 289.236C84.8242 289.822 85.0469 290.729 85.0586 291.955V293.361ZM83.9746 291.879C83.9746 290.961 83.8457 290.293 83.5879 289.875C83.3301 289.453 82.9219 289.242 82.3633 289.242C81.8086 289.242 81.4043 289.451 81.1504 289.869C80.8965 290.287 80.7656 290.93 80.7578 291.797V293.531C80.7578 294.453 80.8906 295.135 81.1562 295.576C81.4258 296.014 81.832 296.232 82.375 296.232C82.9102 296.232 83.3066 296.025 83.5645 295.611C83.8262 295.197 83.9629 294.545 83.9746 293.654V291.879Z" fill="black"/>
<path d="M294.285 292.207H295.1C295.611 292.199 296.014 292.064 296.307 291.803C296.6 291.541 296.746 291.188 296.746 290.742C296.746 289.742 296.248 289.242 295.252 289.242C294.783 289.242 294.408 289.377 294.127 289.646C293.85 289.912 293.711 290.266 293.711 290.707H292.627C292.627 290.031 292.873 289.471 293.365 289.025C293.861 288.576 294.49 288.352 295.252 288.352C296.057 288.352 296.688 288.564 297.145 288.99C297.602 289.416 297.83 290.008 297.83 290.766C297.83 291.137 297.709 291.496 297.467 291.844C297.229 292.191 296.902 292.451 296.488 292.623C296.957 292.771 297.318 293.018 297.572 293.361C297.83 293.705 297.959 294.125 297.959 294.621C297.959 295.387 297.709 295.994 297.209 296.443C296.709 296.893 296.059 297.117 295.258 297.117C294.457 297.117 293.805 296.9 293.301 296.467C292.801 296.033 292.551 295.461 292.551 294.75H293.641C293.641 295.199 293.787 295.559 294.08 295.828C294.373 296.098 294.766 296.232 295.258 296.232C295.781 296.232 296.182 296.096 296.459 295.822C296.736 295.549 296.875 295.156 296.875 294.645C296.875 294.148 296.723 293.768 296.418 293.502C296.113 293.236 295.674 293.1 295.1 293.092H294.285V292.207Z" fill="black"/>
<path d="M509.963 288.463V289.383H509.764C508.92 289.398 508.248 289.648 507.748 290.133C507.248 290.617 506.959 291.299 506.881 292.178C507.33 291.662 507.943 291.404 508.721 291.404C509.463 291.404 510.055 291.666 510.496 292.189C510.941 292.713 511.164 293.389 511.164 294.217C511.164 295.096 510.924 295.799 510.443 296.326C509.967 296.854 509.326 297.117 508.521 297.117C507.705 297.117 507.043 296.805 506.535 296.18C506.027 295.551 505.773 294.742 505.773 293.754V293.338C505.773 291.768 506.107 290.568 506.775 289.74C507.447 288.908 508.445 288.482 509.77 288.463H509.963ZM508.539 292.307C508.168 292.307 507.826 292.418 507.514 292.641C507.201 292.863 506.984 293.143 506.863 293.479V293.877C506.863 294.58 507.021 295.146 507.338 295.576C507.654 296.006 508.049 296.221 508.521 296.221C509.01 296.221 509.393 296.041 509.67 295.682C509.951 295.322 510.092 294.852 510.092 294.27C510.092 293.684 509.949 293.211 509.664 292.852C509.383 292.488 509.008 292.307 508.539 292.307Z" fill="black"/>
<path d="M722.863 293.25C722.637 293.52 722.365 293.736 722.049 293.9C721.736 294.064 721.393 294.146 721.018 294.146C720.525 294.146 720.096 294.025 719.729 293.783C719.365 293.541 719.084 293.201 718.885 292.764C718.686 292.322 718.586 291.836 718.586 291.305C718.586 290.734 718.693 290.221 718.908 289.764C719.127 289.307 719.436 288.957 719.834 288.715C720.232 288.473 720.697 288.352 721.229 288.352C722.072 288.352 722.736 288.668 723.221 289.301C723.709 289.93 723.953 290.789 723.953 291.879V292.195C723.953 293.855 723.625 295.068 722.969 295.834C722.312 296.596 721.322 296.986 719.998 297.006H719.787V296.092H720.016C720.91 296.076 721.598 295.844 722.078 295.395C722.559 294.941 722.82 294.227 722.863 293.25ZM721.193 293.25C721.557 293.25 721.891 293.139 722.195 292.916C722.504 292.693 722.729 292.418 722.869 292.09V291.656C722.869 290.945 722.715 290.367 722.406 289.922C722.098 289.477 721.707 289.254 721.234 289.254C720.758 289.254 720.375 289.438 720.086 289.805C719.797 290.168 719.652 290.648 719.652 291.246C719.652 291.828 719.791 292.309 720.068 292.688C720.35 293.062 720.725 293.25 721.193 293.25Z" fill="black"/>
<path d="M154.271 297H153.182V289.775L150.996 290.578V289.594L154.102 288.428H154.271V297Z" fill="black"/>
<path d="M368.285 294.135H369.469V295.02H368.285V297H367.195V295.02H363.311V294.381L367.131 288.469H368.285V294.135ZM364.541 294.135H367.195V289.951L367.066 290.186L364.541 294.135Z" fill="black"/>
<path d="M582.217 289.078L578.684 297H577.547L581.068 289.359H576.451V288.469H582.217V289.078Z" fill="black"/>
<path d="M793.271 297H792.182V289.775L789.996 290.578V289.594L793.102 288.428H793.271V297ZM801.797 293.361C801.797 294.631 801.58 295.574 801.146 296.191C800.713 296.809 800.035 297.117 799.113 297.117C798.203 297.117 797.529 296.816 797.092 296.215C796.654 295.609 796.428 294.707 796.412 293.508V292.061C796.412 290.807 796.629 289.875 797.062 289.266C797.496 288.656 798.176 288.352 799.102 288.352C800.02 288.352 800.695 288.646 801.129 289.236C801.562 289.822 801.785 290.729 801.797 291.955V293.361ZM800.713 291.879C800.713 290.961 800.584 290.293 800.326 289.875C800.068 289.453 799.66 289.242 799.102 289.242C798.547 289.242 798.143 289.451 797.889 289.869C797.635 290.287 797.504 290.93 797.496 291.797V293.531C797.496 294.453 797.629 295.135 797.895 295.576C798.164 296.014 798.57 296.232 799.113 296.232C799.648 296.232 800.045 296.025 800.303 295.611C800.564 295.197 800.701 294.545 800.713 293.654V291.879Z" fill="black"/>
<path d="M227.299 297H221.709V296.221L224.662 292.939C225.1 292.443 225.4 292.041 225.564 291.732C225.732 291.42 225.816 291.098 225.816 290.766C225.816 290.32 225.682 289.955 225.412 289.67C225.143 289.385 224.783 289.242 224.334 289.242C223.795 289.242 223.375 289.396 223.074 289.705C222.777 290.01 222.629 290.436 222.629 290.982H221.545C221.545 290.197 221.797 289.562 222.301 289.078C222.809 288.594 223.486 288.352 224.334 288.352C225.127 288.352 225.754 288.561 226.215 288.979C226.676 289.393 226.906 289.945 226.906 290.637C226.906 291.477 226.371 292.477 225.301 293.637L223.016 296.115H227.299V297Z" fill="black"/>
<path d="M435.207 292.723L435.641 288.469H440.012V289.471H436.561L436.303 291.797C436.721 291.551 437.195 291.428 437.727 291.428C438.504 291.428 439.121 291.686 439.578 292.201C440.035 292.713 440.264 293.406 440.264 294.281C440.264 295.16 440.025 295.854 439.549 296.361C439.076 296.865 438.414 297.117 437.562 297.117C436.809 297.117 436.193 296.908 435.717 296.49C435.24 296.072 434.969 295.494 434.902 294.756H435.928C435.994 295.244 436.168 295.613 436.449 295.863C436.73 296.109 437.102 296.232 437.562 296.232C438.066 296.232 438.461 296.061 438.746 295.717C439.035 295.373 439.18 294.898 439.18 294.293C439.18 293.723 439.023 293.266 438.711 292.922C438.402 292.574 437.99 292.4 437.475 292.4C437.002 292.4 436.631 292.504 436.361 292.711L436.074 292.945L435.207 292.723Z" fill="black"/>
<path d="M652.883 290.695C652.883 291.121 652.77 291.5 652.543 291.832C652.32 292.164 652.018 292.424 651.635 292.611C652.08 292.803 652.432 293.082 652.689 293.449C652.951 293.816 653.082 294.232 653.082 294.697C653.082 295.436 652.832 296.023 652.332 296.461C651.836 296.898 651.182 297.117 650.369 297.117C649.549 297.117 648.891 296.898 648.395 296.461C647.902 296.02 647.656 295.432 647.656 294.697C647.656 294.236 647.781 293.82 648.031 293.449C648.285 293.078 648.635 292.797 649.08 292.605C648.701 292.418 648.402 292.158 648.184 291.826C647.965 291.494 647.855 291.117 647.855 290.695C647.855 289.977 648.086 289.406 648.547 288.984C649.008 288.562 649.615 288.352 650.369 288.352C651.119 288.352 651.725 288.562 652.186 288.984C652.65 289.406 652.883 289.977 652.883 290.695ZM651.998 294.674C651.998 294.197 651.846 293.809 651.541 293.508C651.24 293.207 650.846 293.057 650.357 293.057C649.869 293.057 649.477 293.205 649.18 293.502C648.887 293.799 648.74 294.189 648.74 294.674C648.74 295.158 648.883 295.539 649.168 295.816C649.457 296.094 649.857 296.232 650.369 296.232C650.877 296.232 651.275 296.094 651.564 295.816C651.854 295.535 651.998 295.154 651.998 294.674ZM650.369 289.242C649.943 289.242 649.598 289.375 649.332 289.641C649.07 289.902 648.939 290.26 648.939 290.713C648.939 291.146 649.068 291.498 649.326 291.768C649.588 292.033 649.936 292.166 650.369 292.166C650.803 292.166 651.148 292.033 651.406 291.768C651.668 291.498 651.799 291.146 651.799 290.713C651.799 290.279 651.664 289.926 651.395 289.652C651.125 289.379 650.783 289.242 650.369 289.242Z" fill="black"/>
<path d="M871.271 297H870.182V289.775L867.996 290.578V289.594L871.102 288.428H871.271V297ZM878.01 297H876.92V289.775L874.734 290.578V289.594L877.84 288.428H878.01V297Z" fill="black"/>
<path d="M78 252L147.622 188.5L217.245 202.5L286.867 184L356.49 227.5L426.112 240.5H495.735L565.357 212.5L634.98 202.5L704.602 161L774.225 149.5L866 106" stroke="#2F80ED"/>
<path d="M78 192L147.617 167.5L217.235 134L286.853 145.5L356.47 157.5L426.088 130L495.706 127.5L565.323 108L634.941 62L704.559 41L774.176 46L867 1" stroke="#6FA1CF"/>
</svg>
